<svg width="20" height="20" viewBox="0 0 20 20" fill="none" xmlns="http://www.w3.org/2000/svg">
<g clip-path="url(#clip0_9_5254)">
<path d="M12.5 20C12.0391 20 11.6666 19.6275 11.6666 19.1667V18.0017C11.6666 16.7475 12.3375 15.6242 13.4166 15.0717C15.935 13.78 17.5 11.2217 17.5 8.39418C17.5 5.51501 15.8933 2.93585 13.3083 1.66251L13.3333 6.66668C13.3333 8.50501 11.8383 10 9.99998 10C8.16165 10 6.66665 8.50501 6.66665 6.66668V1.67668C4.10665 2.93585 2.49998 5.51501 2.49998 8.39418C2.49998 11.2217 4.06498 13.78 6.58331 15.0717C7.66248 15.6242 8.33331 16.7475 8.33331 18.0017V19.1667C8.33331 19.6275 7.96081 20 7.49998 20C7.03915 20 6.66665 19.6275 6.66665 19.1667V18.0017C6.66665 17.3858 6.33581 16.8175 5.82331 16.555C2.74581 14.9767 0.833313 11.85 0.833313 8.39501C0.833313 4.87668 2.79581 1.72335 5.95498 0.16668C6.46331 -0.0833204 7.05581 -0.052487 7.53915 0.250846C8.03665 0.560013 8.33331 1.09335 8.33331 1.67668V6.66668C8.33331 7.58585 9.08081 8.33335 9.99998 8.33335C10.9191 8.33335 11.6666 7.58585 11.6666 6.66668V1.67668C11.6666 1.09335 11.9633 0.560013 12.4608 0.250846C12.945 -0.0508204 13.5383 -0.0816537 14.0441 0.16668C17.2033 1.72335 19.1658 4.87585 19.1658 8.39418C19.1658 11.8492 17.2533 14.9758 14.1758 16.5542C13.6641 16.8167 13.3325 17.385 13.3325 18.0008V19.1658C13.3325 19.6267 12.96 19.9992 12.4991 19.9992L12.5 20Z" fill="white"/>
</g>
<defs>
<clipPath id="clip0_9_5254">
<rect width="20" height="20" fill="white"/>
</clipPath>
</defs>
</svg>
