<svg width="20" height="20" viewBox="0 0 20 20" fill="none" xmlns="http://www.w3.org/2000/svg">
<g clip-path="url(#clip0_9_5258)">
<path d="M10 14.1667V17.5C10 17.9584 9.625 18.3334 9.16667 18.3334H5.83333C5.375 18.3334 5 17.9584 5 17.5C5 17.0417 5.375 16.6667 5.83333 16.6667H8.33333V15H4.16667C1.86667 15 0 13.1334 0 10.8334V5.00004C0 2.70004 1.86667 0.833374 4.16667 0.833374H14.1667C16.4667 0.833374 18.3333 2.70004 18.3333 5.00004C18.3333 5.45837 17.9583 5.83337 17.5 5.83337C17.0417 5.83337 16.6667 5.45837 16.6667 5.00004C16.6667 3.62504 15.5417 2.50004 14.1667 2.50004H4.16667C2.79167 2.50004 1.66667 3.62504 1.66667 5.00004V10.8334C1.66667 12.2084 2.79167 13.3334 4.16667 13.3334H9.16667C9.625 13.3334 10 13.7084 10 14.1667ZM20 10.8334V16.6667C20 18.5084 18.5083 20 16.6667 20H15C13.1583 20 11.6667 18.5084 11.6667 16.6667V10.8334C11.6667 8.99171 13.1583 7.50004 15 7.50004H16.6667C18.5083 7.50004 20 8.99171 20 10.8334ZM18.3333 10.8334C18.3333 9.91671 17.5833 9.16671 16.6667 9.16671H15C14.0833 9.16671 13.3333 9.91671 13.3333 10.8334V16.6667C13.3333 17.5834 14.0833 18.3334 15 18.3334H16.6667C17.5833 18.3334 18.3333 17.5834 18.3333 16.6667V10.8334Z" fill="white"/>
</g>
<defs>
<clipPath id="clip0_9_5258">
<rect width="20" height="20" fill="white"/>
</clipPath>
</defs>
</svg>
