<svg width="20" height="20" viewBox="0 0 20 20" fill="none" xmlns="http://www.w3.org/2000/svg">
<g clip-path="url(#clip0_9_5262)">
<path d="M16.6242 4.61335L13.7209 1.70835C13.1803 1.16513 12.5374 0.734461 11.8294 0.441235C11.1213 0.148009 10.3622 -0.00195323 9.59585 1.92072e-05H5.83335C4.72869 0.00134242 3.66965 0.440754 2.88854 1.22187C2.10742 2.00298 1.66801 3.06202 1.66669 4.16669V15.8334C1.66801 16.938 2.10742 17.9971 2.88854 18.7782C3.66965 19.5593 4.72869 19.9987 5.83335 20H14.1667C15.2713 19.9987 16.3304 19.5593 17.1115 18.7782C17.8926 17.9971 18.332 16.938 18.3334 15.8334V8.73752C18.3354 7.9712 18.1854 7.2121 17.892 6.50416C17.5987 5.79623 17.1677 5.15355 16.6242 4.61335ZM15.4459 5.79169C15.7003 6.05347 15.9192 6.34768 16.0967 6.66669H12.5C12.279 6.66669 12.067 6.57889 11.9108 6.42261C11.7545 6.26633 11.6667 6.05437 11.6667 5.83335V2.23669C11.9858 2.41412 12.2803 2.63265 12.5425 2.88669L15.4459 5.79169ZM16.6667 15.8334C16.6667 16.4964 16.4033 17.1323 15.9345 17.6011C15.4656 18.07 14.8297 18.3334 14.1667 18.3334H5.83335C5.17031 18.3334 4.53443 18.07 4.06559 17.6011C3.59675 17.1323 3.33335 16.4964 3.33335 15.8334V4.16669C3.33335 3.50364 3.59675 2.86776 4.06559 2.39892C4.53443 1.93008 5.17031 1.66669 5.83335 1.66669H9.59585C9.73252 1.66669 9.86502 1.69335 10 1.70585V5.83335C10 6.49639 10.2634 7.13228 10.7323 7.60112C11.2011 8.06996 11.837 8.33335 12.5 8.33335H16.6275C16.64 8.46835 16.6667 8.60002 16.6667 8.73752V15.8334Z" fill="white"/>
</g>
<defs>
<clipPath id="clip0_9_5262">
<rect width="20" height="20" fill="white"/>
</clipPath>
</defs>
</svg>
