<svg width="16" height="16" viewBox="0 0 16 16" fill="none" xmlns="http://www.w3.org/2000/svg">
<g clip-path="url(#clip0_5_815)">
<path d="M6.66668 14.6867C6.15334 14.6867 5.66001 14.4867 5.27334 14.1L0.786675 9.88C-0.259992 8.83333 -0.259992 7.15333 0.773341 6.12C0.773341 6.12 0.780008 6.11333 0.786675 6.10667L5.28667 1.87333C5.84667 1.30667 6.68001 1.14 7.43334 1.45333C8.18668 1.76667 8.66001 2.46667 8.66668 3.28V4.65333H13.3533C14.8133 4.65333 16 5.85333 16 7.32667V8.64667C16 10.12 14.8133 11.32 13.3533 11.32H8.66668V12.6933C8.66668 13.5133 8.19334 14.2133 7.43334 14.5267C7.18001 14.6333 6.92001 14.68 6.66668 14.68V14.6867ZM1.71334 7.07333C1.20667 7.58667 1.21334 8.41333 1.72001 8.92667L6.20001 13.1467C6.50001 13.4467 6.83334 13.34 6.92668 13.3067C7.02001 13.2667 7.33334 13.1067 7.33334 12.7067V10.6733C7.33334 10.3067 7.63334 10.0067 8.00001 10.0067H13.3533C14.08 10.0067 14.6667 9.40667 14.6667 8.66667V7.34667C14.6667 6.60667 14.0733 6.00667 13.3533 6.00667H8.00001C7.63334 6.00667 7.33334 5.70667 7.33334 5.34V3.3C7.33334 2.9 7.02001 2.74 6.92668 2.7C6.83334 2.66 6.50001 2.55333 6.21334 2.84L1.71334 7.07333Z" fill="#4BAADE"/>
</g>
<defs>
<clipPath id="clip0_5_815">
<rect width="16" height="16" fill="white"/>
</clipPath>
</defs>
</svg>
