<svg width="16" height="16" viewBox="0 0 16 16" fill="none" xmlns="http://www.w3.org/2000/svg">
<g clip-path="url(#clip0_9_5290)">
<path d="M7.65067 10C7.47386 10 7.30429 10.0702 7.17926 10.1953C7.05424 10.3203 6.984 10.4899 6.984 10.6667V12.6667C6.984 13.1971 6.77329 13.7058 6.39821 14.0809C6.02314 14.456 5.51443 14.6667 4.984 14.6667H3.33333C2.8029 14.6667 2.29419 14.456 1.91912 14.0809C1.54405 13.7058 1.33333 13.1971 1.33333 12.6667V3.33333C1.33333 2.8029 1.54405 2.29419 1.91912 1.91912C2.29419 1.54405 2.8029 1.33333 3.33333 1.33333H4.984C5.51443 1.33333 6.02314 1.54405 6.39821 1.91912C6.77329 2.29419 6.984 2.8029 6.984 3.33333V5.33333C6.984 5.51014 7.05424 5.67971 7.17926 5.80474C7.30429 5.92976 7.47386 6 7.65067 6C7.82748 6 7.99705 5.92976 8.12207 5.80474C8.2471 5.67971 8.31733 5.51014 8.31733 5.33333V3.33333C8.31627 2.4496 7.96475 1.60237 7.33985 0.97748C6.71496 0.352588 5.86773 0.00105857 4.984 0H3.33333C2.4496 0.00105857 1.60237 0.352588 0.97748 0.97748C0.352588 1.60237 0.00105857 2.4496 0 3.33333L0 12.6667C0.00105857 13.5504 0.352588 14.3976 0.97748 15.0225C1.60237 15.6474 2.4496 15.9989 3.33333 16H4.984C5.86773 15.9989 6.71496 15.6474 7.33985 15.0225C7.96475 14.3976 8.31627 13.5504 8.31733 12.6667V10.6667C8.31733 10.4899 8.2471 10.3203 8.12207 10.1953C7.99705 10.0702 7.82748 10 7.65067 10Z" fill="black"/>
<path d="M15.2447 6.58605L12.1874 3.52872C12.1259 3.46505 12.0523 3.41426 11.971 3.37932C11.8896 3.34438 11.8022 3.32599 11.7136 3.32522C11.6251 3.32445 11.5373 3.34132 11.4554 3.37484C11.3735 3.40836 11.299 3.45786 11.2364 3.52046C11.1738 3.58305 11.1243 3.65749 11.0908 3.73942C11.0573 3.82135 11.0404 3.90914 11.0412 3.99766C11.042 4.08617 11.0604 4.17365 11.0953 4.25499C11.1302 4.33633 11.181 4.40989 11.2447 4.47139L14.086 7.31339L4.00004 7.33339C3.82323 7.33339 3.65366 7.40363 3.52864 7.52865C3.40361 7.65367 3.33337 7.82324 3.33337 8.00005C3.33337 8.17687 3.40361 8.34643 3.52864 8.47146C3.65366 8.59648 3.82323 8.66672 4.00004 8.66672L14.1254 8.64605L11.2434 11.5287C11.1797 11.5902 11.1289 11.6638 11.094 11.7451C11.059 11.8265 11.0406 11.9139 11.0399 12.0025C11.0391 12.091 11.056 12.1788 11.0895 12.2607C11.123 12.3426 11.1725 12.4171 11.2351 12.4797C11.2977 12.5422 11.3721 12.5917 11.4541 12.6253C11.536 12.6588 11.6238 12.6757 11.7123 12.6749C11.8008 12.6741 11.8883 12.6557 11.9696 12.6208C12.051 12.5858 12.1245 12.5351 12.186 12.4714L15.2434 9.41405C15.6185 9.03918 15.8294 8.53066 15.8296 8.00033C15.8299 7.47 15.6195 6.96129 15.2447 6.58605Z" fill="black"/>
</g>
<defs>
<clipPath id="clip0_9_5290">
<rect width="16" height="16" fill="white"/>
</clipPath>
</defs>
</svg>
