<svg width="20" height="20" viewBox="0 0 20 20" fill="none" xmlns="http://www.w3.org/2000/svg">
<g clip-path="url(#clip0_9_5227)">
<path d="M18.2486 12.0948C18.2402 12.0899 18.2316 12.0854 18.2231 12.0806C18.2429 11.8482 18.2535 11.6131 18.2535 11.3756C18.2535 8.07549 16.3063 5.22202 13.5008 3.90253C13.5008 3.89249 13.5015 3.88257 13.5015 3.87245C13.5015 1.93862 11.9339 0.370972 10 0.370972C8.0662 0.370972 6.49855 1.93862 6.49855 3.87245C6.49855 3.88249 6.49925 3.89241 6.49929 3.90253C3.69371 5.22206 1.74649 8.07553 1.74649 11.3756C1.74649 11.6131 1.75715 11.8481 1.77692 12.0805C1.7684 12.0854 1.75977 12.0899 1.75126 12.0948C0.0766101 13.0617 -0.497217 15.2032 0.469695 16.8779C1.11829 18.0012 2.2952 18.6292 3.50539 18.6292C4.09934 18.6292 4.70145 18.4779 5.25285 18.1595C5.26226 18.1541 5.27121 18.1481 5.28055 18.1426C6.61894 19.0789 8.24636 19.6291 10.0001 19.6291C11.7538 19.6291 13.3812 19.0789 14.7196 18.1426C14.729 18.1481 14.7378 18.1541 14.7472 18.1595C15.2987 18.4779 15.9007 18.6293 16.4947 18.6293C17.7048 18.6293 18.8818 18.0012 19.5304 16.878C20.4972 15.2032 19.9234 13.0617 18.2486 12.0948ZM10 1.87159C11.1033 1.87159 12.0009 2.76913 12.0009 3.87245C12.0009 4.97577 11.1033 5.8733 10 5.8733C8.89675 5.8733 7.99917 4.97577 7.99917 3.87245C7.99921 2.76913 8.89679 1.87159 10 1.87159ZM5.43476 15.645C5.29641 16.1613 4.96535 16.5928 4.50246 16.86C4.19813 17.0357 3.85332 17.1286 3.50539 17.1286C2.79098 17.1286 2.12575 16.7451 1.76926 16.1276C1.21762 15.1722 1.54618 13.9461 2.50168 13.3944C2.80602 13.2186 3.15086 13.1258 3.49879 13.1258H3.49895C4.2132 13.1258 4.8784 13.5093 5.23488 14.1268C5.50211 14.5896 5.57308 15.1288 5.43476 15.645ZM13.5967 17.0884C12.5547 17.7468 11.3212 18.1285 10.0001 18.1285C8.67886 18.1285 7.44535 17.7468 6.40328 17.0884C7.1289 16.0132 7.22656 14.5753 6.53445 13.3764C5.88594 12.2531 4.70902 11.6251 3.49891 11.6251C3.49891 11.6251 3.49887 11.6251 3.49875 11.6251C3.41676 11.6251 3.33469 11.6283 3.25254 11.6341C3.2493 11.5483 3.24715 11.4622 3.24715 11.3756C3.24715 8.78877 4.70941 6.53744 6.85058 5.40366C7.41871 6.56998 8.61538 7.37389 10 7.37389C11.3847 7.37389 12.5813 6.57006 13.1495 5.40366C15.2906 6.53744 16.7529 8.78873 16.7529 11.3756C16.7529 11.4621 16.7508 11.5482 16.7475 11.634C16.6655 11.6283 16.5835 11.6251 16.5016 11.6251C16.5015 11.6251 16.5014 11.6251 16.5013 11.6251C15.2912 11.6251 14.114 12.2532 13.4656 13.3765C12.7734 14.5754 12.8711 16.0133 13.5967 17.0884ZM18.2307 16.1276C17.8742 16.7451 17.209 17.1286 16.4946 17.1286C16.1467 17.1286 15.8019 17.0357 15.4974 16.86C14.542 16.3083 14.2135 15.0822 14.7651 14.1268C15.1215 13.5093 15.7868 13.1258 16.5012 13.1257H16.5015C16.8493 13.1257 17.194 13.2185 17.4984 13.3943C18.4539 13.9459 18.7824 15.1721 18.2307 16.1276Z" fill="white"/>
</g>
<defs>
<clipPath id="clip0_9_5227">
<rect width="20" height="20" fill="white"/>
</clipPath>
</defs>
</svg>
