<svg width="20" height="20" viewBox="0 0 20 20" fill="none" xmlns="http://www.w3.org/2000/svg">
<path d="M5.41667 13.3333H0.833333C0.373333 13.3333 0 12.96 0 12.5C0 12.04 0.373333 11.6667 0.833333 11.6667H4.97083L6.39 9.5375C6.55417 9.29083 6.84167 9.14333 7.135 9.16833C7.43167 9.18667 7.69583 9.36167 7.82917 9.6275L9.68667 13.3433L10.5567 12.0383C10.7117 11.8067 10.9717 11.6675 11.25 11.6675H15C15.46 11.6675 15.8333 12.0408 15.8333 12.5008C15.8333 12.9608 15.46 13.3342 15 13.3342H11.6958L10.2767 15.4633C10.1217 15.6958 9.86083 15.8342 9.58333 15.8342C9.56583 15.8342 9.54833 15.8342 9.53167 15.8325C9.235 15.8142 8.97083 15.6392 8.8375 15.3733L6.98 11.6575L6.11 12.9625C5.955 13.1942 5.695 13.3333 5.41667 13.3333ZM18.3333 8.7375V15.8333C18.3333 18.1308 16.4642 20 14.1667 20H5.83333C3.53583 20 1.66667 18.1308 1.66667 15.8333C1.66667 15.3733 2.04 15 2.5 15C2.96 15 3.33333 15.3733 3.33333 15.8333C3.33333 17.2117 4.455 18.3333 5.83333 18.3333H14.1667C15.545 18.3333 16.6667 17.2117 16.6667 15.8333V8.7375C16.6667 8.60167 16.66 8.46667 16.6475 8.33333H12.5C11.1217 8.33333 10 7.21167 10 5.83333V1.68583C9.86667 1.67333 9.73167 1.66667 9.59583 1.66667H5.83333C4.455 1.66667 3.33333 2.78833 3.33333 4.16667V9.16667C3.33333 9.62667 2.96 10 2.5 10C2.04 10 1.66667 9.62667 1.66667 9.16667V4.16667C1.66667 1.86917 3.53583 0 5.83333 0H9.59583C11.1542 0 12.6183 0.606667 13.7208 1.70833L16.625 4.6125C17.7267 5.71417 18.3333 7.17917 18.3333 8.7375ZM16.1175 6.66667C15.9358 6.35083 15.7117 6.05583 15.4467 5.79167L12.5425 2.8875C12.2775 2.6225 11.9833 2.39833 11.6675 2.21667V5.83417C11.6675 6.29333 12.0417 6.6675 12.5008 6.6675H16.1183L16.1175 6.66667Z" fill="white"/>
</svg>
